<?xml version="1.0" encoding="UTF-8"?>
<svg xmlns="http://www.w3.org/2000/svg" viewBox="0 0 24 24" stroke-linecap="round" stroke-linejoin="round">
  <path d="M5 17.5c-1.2.8-2.4.8-3.5 0 1.5-.3 2.6-1.1 3.3-2.3" fill="#7DE356" stroke="#3E9E1D" stroke-width="1.25"/>
  <path d="M6.5 15.2c1.5 2.4 5.1 2.8 7.8.9 2.7-1.9 3.8-5.2 2.4-7.4" fill="#7DE356" stroke="#3E9E1D" stroke-width="1.25"/>
  <path d="M16.7 8.7c1.3-1.1 3-.8 4 .5.7.9.8 2.1.2 3.1" fill="#7DE356" stroke="#3E9E1D" stroke-width="1.25"/>
  <path d="M9 13.8l-2.7 2.7M10.8 16.7l-1.1 3.2M13.8 15.5l2.6 2.4M15.7 12.6l3.2.8" fill="none" stroke="#3E9E1D" stroke-width="1.5"/>
  <circle cx="18.5" cy="10.1" r="0.9" fill="#1A1A1A"/>
</svg>
